<svg xmlns="http://www.w3.org/2000/svg" viewBox="0 0 960 620">
  <rect width="960" height="620" rx="48" fill="#ff5b4d"/>
  <rect x="128" y="96" width="704" height="428" rx="38" fill="#fff1df" opacity=".92"/>
  <rect x="176" y="150" width="190" height="238" rx="28" fill="#111"/>
  <path d="M220 210h54v118c0 40-24 61-61 61-18 0-35-4-49-14l18-45c8 7 16 10 27 10 10 0 15-7 15-20v-58h-4v-52Zm132-2c29 0 50 8 67 22l-28 44c-11-9-23-14-37-14-10 0-17 4-17 11 0 8 8 11 28 18 36 11 59 25 59 59 0 31-26 52-70 52-32 0-59-10-78-29l28-42c15 13 32 20 49 20 11 0 18-4 18-11 0-8-8-11-29-18-35-12-57-27-57-59 0-34 28-53 67-53Z" fill="#ff5b4d" transform="scale(.72) translate(418 92)"/>
  <rect x="470" y="310" width="236" height="22" rx="11" fill="#111" opacity=".82"/>
  <rect x="470" y="358" width="292" height="18" rx="9" fill="#111" opacity=".46"/>
  <rect x="470" y="400" width="180" height="18" rx="9" fill="#111" opacity=".46"/>
  <circle cx="740" cy="184" r="54" fill="#ffd166"/>
</svg>
