<svg xmlns="http://www.w3.org/2000/svg" viewBox="0 0 960 620">
  <rect width="960" height="620" rx="48" fill="#19110f"/>
  <path d="M306 92h348l28 38-28 38 28 38-28 38 28 38-28 38 28 38-28 38 28 38-28 38H306l-28-38 28-38-28-38 28-38-28-38 28-38-28-38 28-38-28-38 28-38Z" fill="#fff3e4"/>
  <rect x="350" y="156" width="250" height="22" rx="11" fill="#111"/>
  <rect x="350" y="226" width="180" height="14" rx="7" fill="#111" opacity=".72"/>
  <rect x="350" y="266" width="240" height="14" rx="7" fill="#111" opacity=".48"/>
  <rect x="350" y="306" width="210" height="14" rx="7" fill="#111" opacity=".48"/>
  <rect x="350" y="392" width="254" height="42" rx="16" fill="#ff5b4d"/>
  <path d="M626 198l92 92-92 92-92-92Z" fill="#ffd166" opacity=".92"/>
  <path d="M590 290h72M626 254v72" stroke="#111" stroke-width="12" stroke-linecap="round"/>
</svg>
