<svg xmlns="http://www.w3.org/2000/svg" viewBox="0 0 960 620">
  <defs><linearGradient id="g" x1="0" x2="1"><stop stop-color="#ffefe2"/><stop offset="1" stop-color="#ffd166"/></linearGradient></defs>
  <rect width="960" height="620" rx="48" fill="url(#g)"/>
  <rect x="96" y="90" width="560" height="360" rx="30" fill="#111" opacity=".9"/>
  <path d="M150 188c96-80 153 108 248 28 55-47 86-60 166 10" fill="none" stroke="#ff5b4d" stroke-width="22" stroke-linecap="round"/>
  <path d="M150 305c96-80 153 108 248 28 55-47 86-60 166 10" fill="none" stroke="#ffd166" stroke-width="22" stroke-linecap="round"/>
  <rect x="694" y="116" width="160" height="58" rx="18" fill="#ff5b4d"/>
  <rect x="694" y="204" width="210" height="32" rx="16" fill="#111" opacity=".82"/>
  <rect x="694" y="262" width="168" height="32" rx="16" fill="#111" opacity=".62"/>
  <circle cx="168" cy="508" r="28" fill="#ff5b4d"/>
  <circle cx="238" cy="508" r="28" fill="#111"/>
  <circle cx="308" cy="508" r="28" fill="#ffd166"/>
</svg>
