<svg xmlns="http://www.w3.org/2000/svg" viewBox="0 0 96 96">
  <rect width="96" height="96" rx="24" fill="#111111"/>
  <path d="M28 24h18v35c0 12-7 18-18 18-5 0-10-1-14-4l5-14c2 2 5 3 8 3 3 0 5-2 5-6V39h-4V24Zm39-1c8 0 14 2 19 6l-8 13c-3-3-7-4-11-4-3 0-5 1-5 3s2 3 8 5c10 3 17 7 17 17 0 9-7 15-20 15-9 0-17-3-22-8l8-12c4 4 9 6 14 6 3 0 5-1 5-3s-2-3-8-5c-10-3-16-8-16-17 0-10 8-16 19-16Z" fill="#FF5B4D"/>
  <path d="M20 17h56M20 80h56" stroke="#FFD166" stroke-width="5" stroke-linecap="round"/>
</svg>
